#Comment line ignore any data following # character 
#Hierarchical Translation and Rotation (.htr) file 
[Header]	
#Header keywords are followed by a single value 
FileType HTR		#Single word string
DataType HTRS		#Translation followed by rotation and scale data
FileVersion 1		#integer
NumSegments 23		#integer
NumFrames 6		#integer
DataFrameRate 30		#integer, data frame rate in this file
EulerRotationOrder ZYX
CalibrationUnits mm
RotationUnits Degrees
GlobalAxisofGravity Y
BoneLengthAxis Y
ScaleFactor 1.00
[SegmentNames&Hierarchy]
#CHILD	PARENT
MASTER GLOBAL
weapon MASTER
arm_lock_bottom_part1 weapon
arm_lock_bottom_part2 weapon
arm_lock_bottom_part3 weapon
arm_lock_bottom_part4 weapon
arm_lock_top_part1 weapon
arm_lock_top_part2 weapon
arm_lock_top_part3 weapon
front_lower_left_part1 weapon
front_lower_right_part1 weapon
front_top_left_part weapon
front_top_right_part1 weapon
scope_part1 weapon
scope_part2 weapon
front_lower_left_part2 front_lower_left_part1
front_lower_left_part3 front_lower_left_part2
front_lower_right_part2 front_lower_right_part1
front_lower_right_part3 front_lower_right_part2
front_top_left_part2 front_top_left_part
front_top_left_part3 front_top_left_part2
front_top_right_part2 front_top_right_part1
front_top_right_part3 front_top_right_part2
[BasePosition]
#SegmentName Tx, Ty, Tz, Rx, Ry, Rz, BoneLength
MASTER 0.000000 0.000000 0.000000 -90.000000 0.000000 0.000000 10.000000 
weapon 0.000000 0.000000 0.000000 0.000000 0.000000 0.000000 10.000000 
arm_lock_bottom_part1 0.000000 0.000000 0.000000 0.000000 0.000000 0.000000 10.000000 
arm_lock_bottom_part2 0.000000 0.000000 0.000000 0.000000 0.000000 0.000000 10.000000 
arm_lock_bottom_part3 0.000000 0.000000 0.000000 0.000000 0.000000 0.000000 10.000000 
arm_lock_bottom_part4 0.000000 0.000000 0.000000 0.000000 0.000000 0.000000 10.000000 
arm_lock_top_part1 0.000000 0.000000 0.000000 0.000000 0.000000 0.000000 10.000000 
arm_lock_top_part2 0.000000 0.000000 0.000000 0.000000 0.000000 0.000000 10.000000 
arm_lock_top_part3 0.000000 0.000000 0.000000 0.000000 0.000000 0.000000 10.000000 
front_lower_left_part1 0.000000 0.000000 0.000000 0.000000 0.000000 0.000000 10.000000 
front_lower_right_part1 0.000000 0.000000 0.000000 0.000000 0.000000 0.000000 10.000000 
front_top_left_part 0.000000 0.000000 0.000000 0.000000 0.000000 0.000000 10.000000 
front_top_right_part1 0.000000 0.000000 0.000000 0.000000 0.000000 0.000000 10.000000 
scope_part1 0.000000 0.000000 0.000000 0.000000 0.000000 0.000000 10.000000 
scope_part2 0.000000 0.000000 0.000000 0.000000 0.000000 0.000000 10.000000 
front_lower_left_part2 0.000000 0.000000 0.000000 0.000000 0.000000 0.000000 10.000000 
front_lower_left_part3 0.000000 0.000000 0.000000 0.000000 0.000000 0.000000 10.000000 
front_lower_right_part2 0.000000 0.000000 0.000000 0.000000 0.000000 0.000000 10.000000 
front_lower_right_part3 0.000000 0.000000 0.000000 0.000000 0.000000 0.000000 10.000000 
front_top_left_part2 0.000000 0.000000 0.000000 0.000000 0.000000 0.000000 10.000000 
front_top_left_part3 0.000000 0.000000 0.000000 0.000000 0.000000 0.000000 10.000000 
front_top_right_part2 0.000000 0.000000 0.000000 0.000000 0.000000 0.000000 10.000000 
front_top_right_part3 0.000000 0.000000 0.000000 0.000000 0.000000 0.000000 10.000000 
#Beginning of Data. Separated by tabs
#Fr	Tx	Ty	Tz	Rx	Ry	Rz	SF
[MASTER]
43 0.000000 -0.000019 0.000002 0.002458 -0.000000 0.000000 0.000019
44 0.000000 -0.000019 0.000002 0.002458 -0.000000 0.000000 0.000019
45 0.000000 -0.000019 0.000002 0.002458 -0.000000 0.000000 0.000019
46 0.000000 -0.000019 0.000002 0.002458 -0.000000 0.000000 0.000019
47 0.000000 -0.000019 0.000002 0.002458 -0.000000 0.000000 0.000019
48 0.000000 -0.000019 0.000002 0.002458 -0.000000 0.000000 0.000019
[weapon]
43 10.182457 -168.977844 -13.084106 -0.002473 -0.000000 -0.000020 169.789246
44 10.182457 -168.977844 -13.084106 -0.002473 -0.000000 -0.000020 169.789246
45 10.182476 -168.977844 -13.084106 -0.002473 -0.000000 -0.000020 169.789246
46 10.182457 -168.977844 -13.084106 -0.002473 -0.000000 -0.000020 169.789246
47 10.182457 -168.977844 -13.084106 -0.002473 -0.000000 -0.000020 169.789246
48 10.182457 -168.977844 -13.084106 -0.002473 -0.000000 -0.000020 169.789246
[arm_lock_bottom_part1]
43 -48.820019 98.566170 -83.498993 179.999985 0.000004 9.388626 138.096939
44 -48.820000 98.566208 -83.498993 179.999985 0.000004 9.388626 138.096970
45 -48.820000 98.566170 -83.498993 179.999985 0.000004 9.388626 138.096939
46 -48.820000 98.566208 -83.498993 179.999985 0.000004 9.388626 138.096970
47 -48.820000 98.566208 -83.498993 179.999985 0.000004 9.388626 138.096970
48 -48.820000 98.566208 -83.498993 179.999985 0.000004 9.388626 138.096970
[arm_lock_bottom_part2]
43 -49.022766 58.781967 -78.526535 -179.999985 -0.000001 6.576765 109.658417
44 -49.022766 58.782005 -78.526535 -179.999985 -0.000001 6.576765 109.658440
45 -49.022766 58.781967 -78.526535 -179.999985 -0.000001 6.576765 109.658417
46 -49.022766 58.782005 -78.526535 -179.999985 -0.000001 6.576765 109.658440
47 -49.022766 58.782005 -78.526535 -179.999985 -0.000001 6.576765 109.658440
48 -49.022766 58.782005 -78.526535 -179.999985 -0.000001 6.576765 109.658440
[arm_lock_bottom_part3]
43 -51.266438 -16.798248 -66.920395 -179.999985 -0.000001 4.326176 85.957939
44 -51.266422 -16.798210 -66.920395 -179.999985 -0.000001 4.326176 85.957924
45 -51.266422 -16.798248 -66.920395 -179.999985 -0.000001 4.326176 85.957932
46 -51.266422 -16.798210 -66.920395 -179.999985 -0.000001 4.326176 85.957924
47 -51.266422 -16.798210 -66.920395 -179.999985 -0.000001 4.326176 85.957924
48 -51.266422 -16.798210 -66.920395 -179.999985 -0.000001 4.326176 85.957924
[arm_lock_bottom_part4]
43 -40.078102 -93.503136 -59.330063 -179.999985 -0.000000 1.322129 117.767334
44 -40.078102 -93.503113 -59.330063 -179.999985 -0.000000 1.322129 117.767326
45 -40.078083 -93.503136 -59.330063 -179.999985 -0.000000 1.322129 117.767326
46 -40.078102 -93.503113 -59.330063 -179.999985 -0.000000 1.322129 117.767326
47 -40.078102 -93.503113 -59.330063 -179.999985 -0.000000 1.322129 117.767326
48 -40.078102 -93.503113 -59.330063 -179.999985 -0.000000 1.322129 117.767326
[arm_lock_top_part1]
43 -47.532558 61.554451 78.379364 0.000000 -0.000000 -9.999999 110.415672
44 -47.532558 61.554489 78.379364 0.000000 -0.000000 -9.999999 110.415680
45 -47.532558 61.554451 78.379364 0.000000 -0.000000 -9.999999 110.415672
46 -47.532558 61.554489 78.379364 0.000000 -0.000000 -9.999999 110.415680
47 -47.532558 61.554489 78.379364 0.000000 -0.000000 -9.999999 110.415680
48 -47.532558 61.554489 78.379364 0.000000 -0.000000 -9.999999 110.415680
[arm_lock_top_part2]
43 -45.622673 13.709869 63.393555 0.000000 -0.000000 -7.722126 79.297745
44 -45.622673 13.709908 63.393555 0.000000 -0.000000 -7.722126 79.297745
45 -45.622673 13.709869 63.393555 0.000000 -0.000000 -7.722126 79.297745
46 -45.622673 13.709908 63.393555 0.000000 -0.000000 -7.722126 79.297745
47 -45.622673 13.709908 63.393555 0.000000 -0.000000 -7.722126 79.297745
48 -45.622673 13.709908 63.393555 0.000000 -0.000000 -7.722126 79.297745
[arm_lock_top_part3]
43 -43.788544 -73.747231 72.061615 0.000000 0.000000 -4.533067 112.022171
44 -43.788544 -73.747208 72.061615 0.000000 0.000000 -4.533067 112.022163
45 -43.788525 -73.747253 72.061615 0.000000 0.000000 -4.533067 112.022179
46 -43.788544 -73.747208 72.061615 0.000000 0.000000 -4.533067 112.022163
47 -43.788544 -73.747208 72.061615 0.000000 0.000000 -4.533067 112.022163
48 -43.788544 -73.747208 72.061615 0.000000 0.000000 -4.533067 112.022163
[front_lower_left_part1]
43 -46.798515 475.070953 -43.538895 -17.980034 0.000051 32.194077 479.351807
44 -46.798534 475.071045 -43.538895 -17.980034 0.000051 32.194077 479.351898
45 -46.798534 475.071014 -43.538895 -17.980034 0.000051 32.194077 479.351868
46 -46.798534 475.071045 -43.538895 -17.980034 0.000051 32.194077 479.351898
47 -46.798534 475.071045 -43.538895 -17.980034 0.000051 32.194077 479.351898
48 -46.798534 475.071045 -43.538895 -17.980034 0.000051 32.194077 479.351898
[front_lower_right_part1]
43 26.433447 475.070862 -43.538742 -17.167982 -0.000012 -27.317894 477.793549
44 26.433468 475.070984 -43.538742 -17.167982 -0.000012 -27.317894 477.793671
45 26.433447 475.070953 -43.538895 -17.167982 -0.000012 -27.317894 477.793640
46 26.433468 475.070984 -43.538742 -17.167982 -0.000012 -27.317894 477.793671
47 26.433468 475.070984 -43.538742 -17.167982 -0.000012 -27.317894 477.793671
48 26.433468 475.070984 -43.538742 -17.167982 -0.000012 -27.317894 477.793671
[front_top_left_part]
43 -47.897205 494.788879 7.030945 -0.000000 0.000003 -0.000001 497.151489
44 -47.897224 494.788910 7.030945 -0.000000 0.000003 -0.000001 497.151520
45 -47.897224 494.788879 7.030945 -0.000000 0.000003 -0.000001 497.151489
46 -47.897224 494.788910 7.030945 -0.000000 0.000003 -0.000001 497.151520
47 -47.897224 494.788910 7.030945 -0.000000 0.000003 -0.000001 497.151520
48 -47.897224 494.788910 7.030945 -0.000000 0.000003 -0.000001 497.151520
[front_top_right_part1]
43 27.532120 494.788727 7.031097 0.000000 -0.000000 -0.000000 495.604004
44 27.532139 494.788910 7.031097 0.000000 -0.000000 -0.000000 495.604218
45 27.532156 494.788879 7.031097 0.000000 -0.000000 -0.000000 495.604187
46 27.532139 494.788910 7.031097 0.000000 -0.000000 -0.000000 495.604218
47 27.532139 494.788910 7.031097 0.000000 -0.000000 -0.000000 495.604218
48 27.532139 494.788910 7.031097 0.000000 -0.000000 -0.000000 495.604218
[scope_part1]
43 -10.754318 87.338974 156.453094 -5.030816 -12.851590 1.121755 179.502975
44 -10.754299 87.338936 156.453094 -5.030706 -12.847018 1.121379 179.502960
45 -10.754318 87.338905 156.453094 -5.030801 -12.850816 1.121718 179.502960
46 -10.754299 87.338936 156.453094 -5.031002 -12.861979 1.122712 179.502960
47 -10.754299 87.338936 156.453094 -5.031373 -12.880128 1.124349 179.502960
48 -10.754299 87.338936 156.453094 -5.031922 -12.905013 1.126619 179.502960
[scope_part2]
43 -10.754318 82.597305 156.859894 -5.535188 27.583334 -2.569260 177.603470
44 -10.754299 82.597351 156.859894 -5.534971 27.578104 -2.568763 177.603500
45 -10.754318 82.597305 156.859894 -5.535235 27.582472 -2.569225 177.603470
46 -10.754299 82.597351 156.859894 -5.535843 27.595402 -2.570550 177.603500
47 -10.754299 82.597351 156.859894 -5.536901 27.616402 -2.572892 177.603500
48 -10.754299 82.597351 156.859894 -5.538360 27.645117 -2.576081 177.603500
[front_lower_left_part2]
43 -55.193516 141.618408 32.268372 0.000000 -0.000000 12.785342 155.381302
44 -55.193634 141.618408 32.268219 0.000000 -0.000000 12.794676 155.381317
45 -55.193558 141.618347 32.268372 0.000000 -0.000000 12.812872 155.381241
46 -55.193634 141.618408 32.268219 0.000000 -0.000000 12.831067 155.381317
47 -55.193634 141.618408 32.268219 0.000000 -0.000000 12.857505 155.381317
48 -55.193634 141.618408 32.268219 0.000000 -0.000000 12.889081 155.381317
[front_lower_left_part3]
43 -10.943831 108.509407 -11.125030 35.905014 -7.604906 -25.860115 109.625839
44 -10.943831 108.509407 -11.124877 35.909832 -7.578828 -25.896542 109.625824
45 -10.943755 108.509521 -11.124877 35.914215 -7.554661 -25.930061 109.625931
46 -10.943831 108.509483 -11.125030 35.918308 -7.532550 -25.960901 109.625916
47 -10.943909 108.509445 -11.124877 35.921936 -7.512565 -25.988752 109.625870
48 -10.943679 108.509407 -11.124877 35.925106 -7.494945 -26.013342 109.625809
[front_lower_right_part2]
43 55.193665 141.618195 32.268372 0.000000 0.000000 -17.207743 155.381149
44 55.193668 141.618195 32.268372 0.000000 0.000000 -17.223450 155.381149
45 55.193665 141.618195 32.268372 0.000000 0.000000 -17.239161 155.381149
46 55.193668 141.618195 32.268372 0.000000 0.000000 -17.260107 155.381149
47 55.193668 141.618195 32.268372 0.000000 0.000000 -17.284184 155.381149
48 55.193668 141.618195 32.268372 0.000000 0.000000 -17.311382 155.381149
[front_lower_right_part3]
43 10.943909 108.509445 -11.124877 35.443916 9.771133 22.808498 109.625870
44 10.943870 108.509521 -11.124725 35.448322 9.752706 22.834709 109.625923
45 10.943985 108.509445 -11.124877 35.452377 9.735909 22.858759 109.625877
46 10.943813 108.509521 -11.124725 35.456009 9.720651 22.880461 109.625923
47 10.943909 108.509674 -11.124725 35.459267 9.707245 22.899588 109.626083
48 10.943775 108.509483 -11.124725 35.462036 9.695510 22.916225 109.625877
[front_top_left_part2]
43 -83.654930 137.399826 57.097626 9.841393 0.719012 18.147602 170.695633
44 -83.705696 137.399826 57.100372 9.841621 0.715196 18.169899 170.721436
45 -83.764435 137.399673 57.103573 9.841803 0.710697 18.195587 170.751190
46 -83.830711 137.399521 57.107235 9.842121 0.705655 18.224686 170.784821
47 -83.904190 137.399353 57.111202 9.842416 0.700042 18.256880 170.822098
48 -83.984489 137.399216 57.115631 9.842756 0.693920 18.292170 170.862900
[front_top_left_part3]
43 -28.216438 149.656906 49.959717 -26.020721 -2.358991 -63.356186 160.278915
44 -28.216400 149.656982 49.959564 -26.019768 -2.370660 -63.380257 160.278931
45 -28.216362 149.656906 49.959641 -26.018860 -2.380802 -63.400917 160.278870
46 -28.216400 149.656906 49.959717 -26.018148 -2.389216 -63.418259 160.278900
47 -28.216438 149.656982 49.959564 -26.017574 -2.395939 -63.432072 160.278931
48 -28.216400 149.656982 49.959717 -26.017153 -2.400915 -63.442146 160.278976
[front_top_right_part2]
43 78.090935 137.564240 52.886810 8.094805 0.901937 -21.108276 166.790680
44 78.129158 137.564163 52.884670 8.094362 0.905204 -21.131224 166.807831
45 78.174812 137.564316 52.882233 8.093917 0.908470 -21.154169 166.828568
46 78.227654 137.564392 52.879333 8.093382 0.912587 -21.183044 166.852478
47 78.287277 137.564545 52.875977 8.092768 0.917189 -21.215666 166.879517
48 78.353348 137.564682 52.872463 8.092167 0.922280 -21.251732 166.909531
[front_top_right_part3]
43 28.216488 149.656982 49.959717 -25.881973 3.646744 66.005310 160.278992
44 28.216433 149.656906 49.959564 -25.880585 3.657287 66.027077 160.278870
45 28.216393 149.656982 49.959717 -25.879305 3.666644 66.046432 160.278976
46 28.216457 149.657059 49.959488 -25.878241 3.674709 66.063072 160.278992
47 28.216494 149.656982 49.959717 -25.877335 3.681440 66.076950 160.278992
48 28.216396 149.656982 49.959793 -25.876701 3.686821 66.088127 160.279007
